{"title":"O.Brother.Where.Art.Thou.2000.SWESUB.DVDRip.XviD.-Zen_Bud","uid":5722570,"size":1467912192,"categoryP":"video","categoryS":"movies","magnet":"?xt=urn:btih:bfe56edbb2ac5afc508209e365df40ad8aa84e50&amp;dn=O.Brother.Where.Art.Thou.2000.SWESUB.DVDRip.XviD.-Zen_Bud&amp;tr=udp%3A%2F%2Ftracker.openbittorrent.com%3A80&amp;tr=udp%3A%2F%2Fopen.demonii.com%3A1337&amp;tr=udp%3A%2F%2Ftracker.coppersurfer.tk%3A6969&amp;tr=udp%3A%2F%2Fexodus.desync.com%3A6969","seeders":0,"leechers":1,"uploader":null,"files":1,"time":1280334178,"description":"General\nComplete name                    : O.Brother.Where.Art.Thou.avi\nFormat                           : AVI\nFile size                        : 1.37 GiB\nDuration                         : 1h 42mn\nOverall bit rate                 : 1 901 Kbps\n\n\nVideo\n\nFormat                           : MPEG-4 Visual\nCodec ID/Hint                    : XviD\nDuration                         : 1h 42mn\nBit rate                         : 1 786 Kbps\nWidth                            : 672 pixels\nHeight                           : 288 pixels\nDisplay aspect ratio             : 2.35:1\nStream size                      : 1.28 GiB (94%)\nWriting library                  : XviD 1.2.1 (UTC 2008-12-04)\n\nAudio\n\nFormat                           : MPEG Audio\nCodec ID/Hint                    : MP3\nDuration                         : 1h 42mn\nNominal bit rate                 : 112 Kbps\nChannel(s)                       : 2 channels\nSampling rate                    : 44.1 KHz\nStream size                      : 76.1 MiB (5%)","torrent":{"xt":"urn:btih:bfe56edbb2ac5afc508209e365df40ad8aa84e50","amp;dn":"O.Brother.Where.Art.Thou.2000.SWESUB.DVDRip.XviD.-Zen_Bud","amp;tr":["udp%3A%2F%2Ftracker.openbittorrent.com%3A80","udp%3A%2F%2Fopen.demonii.com%3A1337","udp%3A%2F%2Ftracker.coppersurfer.tk%3A6969","udp%3A%2F%2Fexodus.desync.com%3A6969"],"infoHash":"bfe56edbb2ac5afc508209e365df40ad8aa84e50","infoHashBuffer":{"type":"Buffer","data":[191,229,110,219,178,172,90,252,80,130,9,227,101,223,64,173,138,168,78,80]},"announce":[],"urlList":[]}}